<svg id="Layer_1" style="enable-background:new -947 489 24 24;" x="0px" y="0px" viewBox="-947 489 24 24" xmlns="http://www.w3.org/2000/svg">
      <g id="dy_x5F_template">
        <path id="XMLID_8_" d="M-935.4,501.7l-8.9,1.6c1.2,4.8,5.9,8,10.9,7.1l-1.5-8.3C-934.9,501.9-935.2,501.7-935.4,501.7" style="fill: rgb(255,255,255);"/>
        <path id="XMLID_7_" d="M-940.7,496.9l-3.2,0.6c-0.6,1.4-0.8,2.9-0.6,4.5l4.6-0.8c0.3,0,0.4-0.3,0.4-0.6l-0.6-3.3&#10;&#9;&#9;C-940.2,497.1-940.4,496.9-940.7,496.9" style="fill: rgb(255,255,255);"/>
        <path id="XMLID_6_" d="M -943.2 496.1 L -940.9 495.7 C -940.6 495.7 -940.5 495.4 -940.5 495.1 L -940.8 493.4 C -941.154 493.648 -941.482 493.933 -941.786 494.242 C -942.341 494.807 -942.812 495.454 -943.2 496.1" style="fill: rgb(255,255,255);"/>
        <path id="XMLID_5_" d="M-936.7,491.6c-1.1,0.2-2.1,0.6-3,1.1l1.4,7.8c0,0.3,0.3,0.4,0.6,0.4l6.8-1.2c0.3,0,0.4-0.3,0.4-0.6&#10;&#9;&#9;l-1.2-7.1C-933.3,491.5-935,491.3-936.7,491.6" style="fill: rgb(255,255,255);"/>
        <path id="XMLID_4_" d="M -929.9 492.9 C -929.9 492.9 -929.9 492.9 -929.9 492.9 C -930 492.8 -930.2 492.7 -930.3 492.7 C -930.3 492.7 -930.3 492.7 -930.4 492.7 C -930.4 492.7 -930.4 492.7 -930.5 492.7 L -929.4 498.9 C -929.4 499.2 -929.1 499.3 -928.8 499.3 L -925.8 498.8 C -926.003 497.743 -926.389 496.784 -926.909 495.932 C -927.668 494.689 -928.713 493.671 -929.9 492.9" style="fill: rgb(255,255,255);"/>
        <path id="XMLID_3_" d="M-925.5,500C-925.5,500-925.5,500-925.5,500l-7.7,1.4c-0.3,0-0.4,0.3-0.4,0.6l0.4,2.1c0,0.3,0.3,0.4,0.6,0.4&#10;&#9;&#9;l7-1.2C-925.4,502.1-925.4,501.1-925.5,500" style="fill: rgb(255,255,255);"/>
        <path id="XMLID_2_" d="M-926.1,504.5l-6.3,1.1c-0.3,0-0.4,0.3-0.4,0.6l0.7,3.9C-929.4,509.3-927.2,507.2-926.1,504.5" style="fill: rgb(255,255,255);"/>
      </g>
    </svg>
